<svg xmlns="http://www.w3.org/2000/svg" viewBox="0 0 512 512">
  <defs>
    <linearGradient id="grad" x1="0%" y1="0%" x2="100%" y2="100%">
      <stop offset="0%" style="stop-color:#0ea5e9;stop-opacity:1" />
      <stop offset="100%" style="stop-color:#0284c7;stop-opacity:1" />
    </linearGradient>
  </defs>
  <rect width="512" height="512" rx="100" fill="url(#grad)"/>
  <path d="M256 120c-75 0-136 61-136 136s61 136 136 136 136-61 136-136-61-136-136-136zm0 240c-57.3 0-104-46.7-104-104s46.7-104 104-104 104 46.7 104 104-46.7 104-104 104z" fill="white"/>
  <circle cx="256" cy="256" r="24" fill="white"/>
  <path d="M256 180v32M256 300v32M180 256h32M300 256h32" stroke="white" stroke-width="12" stroke-linecap="round"/>
</svg>
