<svg xmlns="http://www.w3.org/2000/svg" viewBox="0 0 512 512" width="512" height="512">
  <defs>
    <linearGradient id="grad" x1="0%" y1="0%" x2="100%" y2="100%">
      <stop offset="0%" style="stop-color:#0ea5e9;stop-opacity:1" />
      <stop offset="100%" style="stop-color:#0284c7;stop-opacity:1" />
    </linearGradient>
  </defs>
  <rect width="512" height="512" rx="100" fill="url(#grad)"/>
  <path d="M256 80c-97.2 0-176 78.8-176 176s78.8 176 176 176 176-78.8 176-176-78.8-176-176-176zm0 320c-79.5 0-144-64.5-144-144S176.5 112 256 112s144 64.5 144 144-64.5 144-144 144z" fill="white" opacity="0.9"/>
  <path d="M256 160v144l96 57.6-19.2 32-115.2-69.6V160h38.4z" fill="white"/>
</svg>
